<svg xmlns="http://www.w3.org/2000/svg" viewBox="0 0 128 128"><style>.st0{fill:#fff}.st1{fill:#316481}.st2{fill:#57493e}.st3,.st4{fill:none;stroke:#231f20;stroke-width:4;stroke-linecap:round;stroke-miterlimit:10}</style><path class="st0" d="M112 108v12c0 3.3-2.7 6-6 6H22v-12h84c3.3 0 6-2.7 6-6z"/><path class="st1" d="M112 8v100c0 3.3-2.7 6-6 6H28V2h78c3.3 0 6 2.7 6 6z"/><path class="st2" d="M28 2v112h-6c-3.3 0-6 2.7-6 6V8c0-3.3 2.7-6 6-6h6z"/><path class="st0" d="M22 114v12c-3.3 0-6-2.7-6-6s2.7-6 6-6z"/><path class="st3" d="M16 120V8c0-3.3 2.7-6 6-6h84c3.3 0 6 2.7 6 6v112c0 3.3-2.7 6-6 6H22"/><path class="st3" d="M22 114c-3.3 0-6 2.7-6 6s2.7 6 6 6m0-12h84m0 0c3.3 0 6-2.7 6-6"/><path class="st4" d="M28 2v112"/></svg>