<svg xmlns="http://www.w3.org/2000/svg" viewBox="0 0 128 128"><style>.st0{fill:#702828}.st1{fill:#e4ddbd}.st2{fill:#554d70}.st3{fill:#7a9a85}.st4{fill:#636158}.st5{fill:#fff}.st6,.st7,.st8,.st9{fill:none;stroke:#231f20;stroke-width:2;stroke-miterlimit:10}.st6,.st7,.st8{stroke-linecap:round}.st9{stroke-linejoin:round}</style><path class="st0" d="M112 114v4c0 4.4-3.6 8-8 8H39v-4h65c4.4 0 8-3.6 8-8z"/><path class="st1" d="M112 106v8c0 4.4-3.6 8-8 8H39v-5h-6v5h-9c-2.2 0-4-1.8-4-4s1.8-4 4-4h80c4.4 0 8-3.6 8-8z"/><path class="st0" d="M112 102v4c0 4.4-3.6 8-8 8H24c-2.2 0-4 1.8-4 4s1.8 4 4 4h9v3l3-4 3 4v1H24c-1 0-1.9-.2-2.8-.5-.2-.1-.5-.2-.7-.3-.7-.3-1.4-.8-1.9-1.3-.2-.2-.4-.3-.5-.5-.5-.6-1-1.2-1.3-1.9-.1-.2-.2-.5-.3-.7-.3-.9-.5-1.8-.5-2.8 0-4.4 3.6-8 8-8h80c4.4 0 8-3.6 8-8z"/><path class="st0" d="M112 10v92c0 4.4-3.6 8-8 8H24V2h80c4.4 0 8 3.6 8 8zm-12 26V12H36v24h64z"/><path class="st2" d="M36 12h64v24H36z"/><path class="st3" d="M39 122v3l-3-4-3 4v-8h6z"/><path class="st4" d="M24 2v108c-4.4 0-8 3.6-8 8V10c0-4.4 3.6-8 8-8z"/><path class="st5" d="M20.5 125.2c.2.1.5.2.7.3-.2-.1-.4-.2-.7-.3zM18.1 123.4l.5.5c-.2-.1-.3-.3-.5-.5zM16.5 120.8c.1.2.2.5.3.7-.1-.3-.2-.5-.3-.7z"/><path class="st6" d="M16 118V10c0-4.4 3.6-8 8-8h80c4.4 0 8 3.6 8 8v108c0 4.4-3.6 8-8 8H24"/><path class="st6" d="M24 110c-4.4 0-8 3.6-8 8 0 1 .2 1.9.5 2.8.1.2.2.5.3.7.3.7.8 1.3 1.3 1.9l.5.5c.6.5 1.2 1 1.9 1.3.2.1.5.2.7.3.9.3 1.8.5 2.8.5M24 110h80M39 122h65M24 114h80"/><path class="st6" d="M24 122c-2.2 0-4-1.8-4-4s1.8-4 4-4M104 114c4.4 0 8-3.6 8-8M104 110c4.4 0 8-3.6 8-8M104 122c4.4 0 8-3.6 8-8"/><path class="st7" d="M24 2v108"/><path class="st8" d="M36 12h64v24H36z"/><path class="st9" d="M39 122v-5h-6v8l3-4 3 4z"/><path class="st6" d="M24 122h9"/></svg>
