<svg xmlns="http://www.w3.org/2000/svg" viewBox="0 0 128 128"><style>.st0{fill:#f2f2f2}.st1{fill:#0d88b2}.st2{fill:#205a8c}.st3{fill:#fff}.st4,.st5{fill:none;stroke:#231f20;stroke-width:2;stroke-linecap:round;stroke-miterlimit:10}</style><path class="st0" d="M104 122H24c-2.2 0-4-1.8-4-4s1.8-4 4-4h80c4.4 0 8-3.6 8-8v8c0 4.4-3.6 8-8 8z"/><path class="st1" d="M104 110H24V2h80c4.4 0 8 3.6 8 8v92c0 4.4-3.6 8-8 8z"/><path class="st1" d="M104 110c4.4 0 8-3.6 8-8v4c0 4.4-3.6 8-8 8H24c-2.2 0-4 1.8-4 4s1.8 4 4 4h80c4.4 0 8-3.6 8-8v4c0 4.4-3.6 8-8 8H24c-1 0-1.9-.2-2.8-.5-.2-.1-.5-.2-.7-.3-.7-.3-1.4-.8-1.9-1.3-.2-.2-.4-.3-.5-.5-.5-.6-1-1.2-1.3-1.9-.1-.2-.2-.5-.3-.7-.3-.9-.5-1.8-.5-2.8 0-4.4 3.6-8 8-8h80z"/><path class="st2" d="M24 2v108c-4.4 0-8 3.6-8 8V10c0-4.4 3.6-8 8-8z"/><path class="st3" d="M20.5 125.2c.2.1.5.2.7.3-.2-.1-.4-.2-.7-.3z"/><path class="st3" d="M18.1 123.4l.5.5c-.2-.1-.3-.3-.5-.5z"/><path class="st3" d="M16.5 120.8c.1.2.2.5.3.7-.1-.3-.2-.5-.3-.7z"/><path class="st4" d="M16 118V10c0-4.4 3.6-8 8-8h80c4.4 0 8 3.6 8 8v108c0 4.4-3.6 8-8 8H24"/><path class="st4" d="M24 110c-4.4 0-8 3.6-8 8 0 1 .2 1.9.5 2.8.1.2.2.5.3.7.3.7.8 1.3 1.3 1.9l.5.5c.6.5 1.2 1 1.9 1.3.2.1.5.2.7.3.9.3 1.8.5 2.8.5"/><path class="st4" d="M24 110h80"/><path class="st4" d="M24 114h80"/><path class="st4" d="M24 122h80"/><path class="st4" d="M24 122c-2.2 0-4-1.8-4-4s1.8-4 4-4"/><path class="st4" d="M104 114c4.4 0 8-3.6 8-8"/><path class="st4" d="M104 110c4.4 0 8-3.6 8-8"/><path class="st4" d="M104 122c4.4 0 8-3.6 8-8"/><path class="st5" d="M24 2v108"/></svg>
