<svg xmlns="http://www.w3.org/2000/svg" viewBox="0 0 24 24"><style>.st0{fill:#cacaca}</style><path d="M8 17h8v-6h-1V9c0-1.7-1.3-3-3-3S9 7.3 9 9v2H8v6zm4 5C6.5 22 2 17.5 2 12S6.5 2 12 2s10 4.5 10 10-4.5 10-10 10z"/><path d="M12 7c1.1 0 2 .9 2 2v2h-4V9c0-1.1.9-2 2-2z"/><path class="st0" d="M10 11h6v6H8v-6h1zM14 9c0-1.1-.9-2-2-2s-2 .9-2 2v2H9V9c0-1.7 1.3-3 3-3s3 1.3 3 3v2h-1V9z"/><path class="st0" d="M12 0c6.6 0 12 5.4 12 12s-5.4 12-12 12S0 18.6 0 12 5.4 0 12 0zm10 12c0-5.5-4.5-10-10-10S2 6.5 2 12s4.5 10 10 10 10-4.5 10-10z"/></svg>